<?xml version="1.0" encoding="UTF-8" standalone="no"?>
<svg
   xmlns:dc="http://purl.org/dc/elements/1.1/"
   xmlns:cc="http://creativecommons.org/ns#"
   xmlns:rdf="http://www.w3.org/1999/02/22-rdf-syntax-ns#"
   xmlns:svg="http://www.w3.org/2000/svg"
   xmlns="http://www.w3.org/2000/svg"
   id="svg8"
   version="1.1"
   viewBox="0 0 4.2333335 4.2333335"
   height="0.16666667in"
   width="0.16666667in">
  <defs
     id="defs2" />
  <metadata
     id="metadata5">
    <rdf:RDF>
      <cc:Work
         rdf:about="">
        <dc:format>image/svg+xml</dc:format>
        <dc:type
           rdf:resource="http://purl.org/dc/dcmitype/StillImage" />
        <dc:title></dc:title>
      </cc:Work>
    </rdf:RDF>
  </metadata>
  <g
     transform="translate(364.91158,93.458853)"
     id="layer1">
    <path
       id="circle28"
       transform="matrix(0.26458333,0,0,0.26458333,0,17.6)"
       d="m -1371.1934,-419.75 a 7.9999996,7.9999996 0 0 0 -8,8 7.9999996,7.9999996 0 0 0 8,8 7.9999996,7.9999996 0 0 0 8,-8 7.9999996,7.9999996 0 0 0 -8,-8 z m -4,3.91211 h 8 c 0.554,0 1,0.44604 1,1 0,0.55396 -0.446,1 -1,1 h -8 c -0.554,0 -1,-0.44604 -1,-1 0,-0.55396 0.446,-1 1,-1 z m 0,3.08789 h 8 c 0.554,0 1,0.44604 1,1 0,0.55396 -0.446,1 -1,1 h -8 c -0.554,0 -1,-0.44604 -1,-1 0,-0.55396 0.446,-1 1,-1 z m 0,3.08594 h 8 c 0.554,0 1,0.44604 1,1 0,0.55395 -0.446,1 -1,1 h -8 c -0.554,0 -1,-0.44605 -1,-1 0,-0.55396 0.446,-1 1,-1 z"
       style="opacity:1;fill:#606f64;fill-opacity:1;stroke:none;stroke-width:7.55905533;stroke-miterlimit:4;stroke-dasharray:none;stroke-dashoffset:0;stroke-opacity:1" />
  </g>
</svg>
