<?xml version="1.0" encoding="UTF-8" standalone="no"?>
<!-- Created with Inkscape (http://www.inkscape.org/) -->

<svg
   xmlns:dc="http://purl.org/dc/elements/1.1/"
   xmlns:cc="http://creativecommons.org/ns#"
   xmlns:rdf="http://www.w3.org/1999/02/22-rdf-syntax-ns#"
   xmlns:svg="http://www.w3.org/2000/svg"
   xmlns="http://www.w3.org/2000/svg"
   xmlns:sodipodi="http://sodipodi.sourceforge.net/DTD/sodipodi-0.dtd"
   xmlns:inkscape="http://www.inkscape.org/namespaces/inkscape"
   width="4.2333331mm"
   height="4.2333331mm"
   viewBox="0 0 4.2333331 4.2333331"
   version="1.1"
   id="svg5424"
   inkscape:version="0.92.2 2405546, 2018-03-11"
   sodipodi:docname="cleardeletedicon.svg">
  <defs
     id="defs5418" />
  <sodipodi:namedview
     id="base"
     pagecolor="#ffffff"
     bordercolor="#666666"
     borderopacity="1.0"
     inkscape:pageopacity="0.0"
     inkscape:pageshadow="2"
     inkscape:zoom="0.35"
     inkscape:cx="190.85714"
     inkscape:cy="-506.28572"
     inkscape:document-units="mm"
     inkscape:current-layer="layer1"
     showgrid="false"
     fit-margin-top="0"
     fit-margin-left="0"
     fit-margin-right="0"
     fit-margin-bottom="0"
     inkscape:window-width="1920"
     inkscape:window-height="1052"
     inkscape:window-x="0"
     inkscape:window-y="0"
     inkscape:window-maximized="1" />
  <metadata
     id="metadata5421">
    <rdf:RDF>
      <cc:Work
         rdf:about="">
        <dc:format>image/svg+xml</dc:format>
        <dc:type
           rdf:resource="http://purl.org/dc/dcmitype/StillImage" />
        <dc:title></dc:title>
      </cc:Work>
    </rdf:RDF>
  </metadata>
  <g
     inkscape:label="Layer 1"
     inkscape:groupmode="layer"
     id="layer1"
     transform="translate(45.205952,-10.645238)">
    <path
       inkscape:connector-curvature="0"
       style="opacity:1;fill:#606f64;fill-opacity:1;stroke:none;stroke-width:2;stroke-miterlimit:4;stroke-dasharray:none;stroke-dashoffset:0;stroke-opacity:1"
       d="m -43.089286,10.645238 a 2.1166666,2.1166666 0 0 0 -2.116666,2.116667 2.1166666,2.1166666 0 0 0 2.116666,2.116666 2.1166666,2.1166666 0 0 0 2.116667,-2.116666 2.1166666,2.1166666 0 0 0 -0.733822,-1.600938 l -0.380338,0.706935 0.338481,0.217556 c 0.08631,0.0555 0.07871,0.156377 0.0553,0.256318 l -0.06202,0.265615 -1.376125,-0.885217 0.191188,-0.182419 c 0.07429,-0.0708 0.169968,-0.110832 0.256328,-0.05529 l 0.284216,0.182417 0.389123,-0.723469 a 2.1166666,2.1166666 0 0 0 -1.078998,-0.298172 z m -0.179334,1.207678 1.469178,0.94516 -0.264583,1.130165 c -0.02328,0.09998 -0.176398,0.120849 -0.255799,0.05581 l -1.53842,-1.261422 c -0.0794,-0.065 -0.130175,-0.185018 -0.0558,-0.255799 z m -0.957051,0.35915 c 0.0048,0 0.01032,0.0038 0.01693,0.01085 0.0071,0.0071 0.01455,0.01606 0.02275,0.02739 0.0127,-0.02233 0.02302,-0.03359 0.03051,-0.03359 0.0061,0 0.01482,0.0062 0.02686,0.0181 0.0071,0.0079 0.01085,0.01601 0.01085,0.02479 0,0.01185 -0.0048,0.02302 -0.01455,0.03307 -0.0911,0.09897 -0.179784,0.207399 -0.265615,0.326078 0.03545,0.08671 0.08464,0.182655 0.147267,0.287322 0.0053,0.0088 0.0077,0.01593 0.0077,0.02119 0,0.01005 -0.0066,0.02053 -0.01958,0.03152 l -0.02117,0.01447 c 0.0026,0.0053 0.0026,0.01252 0.0026,0.02119 0,0.01312 -0.0048,0.02291 -0.01455,0.02997 -0.01138,0.0079 -0.01958,0.01188 -0.02487,0.01188 -0.01138,0 -0.0217,-0.0057 -0.03051,-0.01707 -0.05252,-0.06745 -0.10668,-0.146633 -0.162771,-0.237713 -0.0753,0.09809 -0.161634,0.228949 -0.258895,0.392742 -0.01402,0.0236 -0.03755,0.03514 -0.0708,0.03514 -0.01588,0 -0.02461,-0.009 -0.02646,-0.02739 -0.02249,-0.01228 -0.0336,-0.03173 -0.0336,-0.0584 0,-0.035 0.0026,-0.05926 0.0066,-0.07286 0.0026,-0.006 0.0098,-0.01823 0.02117,-0.03669 0.08935,-0.13926 0.183858,-0.266945 0.283712,-0.383439 -0.05339,-0.127005 -0.08887,-0.225279 -0.106468,-0.294039 -0.004,-0.01535 -0.0061,-0.02506 -0.0061,-0.02945 0,-0.006 0.004,-0.01482 0.01191,-0.02635 0.0082,-0.0114 0.01614,-0.01707 0.02328,-0.01707 0.0061,0 0.01402,0.0064 0.02487,0.01913 0.004,-0.0071 0.0087,-0.01347 0.01455,-0.01913 0.0079,-0.0071 0.01826,-0.01035 0.03051,-0.01035 0.01402,0 0.02302,0.0065 0.02738,0.01963 0.02355,0.07357 0.05501,0.143751 0.09353,0.210323 0.0622,-0.08058 0.13806,-0.165942 0.227383,-0.255281 0.01058,-0.01053 0.01878,-0.0155 0.02487,-0.0155 z m 0.990653,1.43247 c 0.0034,0 0.0071,0.0024 0.01191,0.0077 0.0053,0.0053 0.01085,0.01222 0.0164,0.02016 0.0093,-0.01606 0.01693,-0.02429 0.02222,-0.02429 0.0048,0 0.01085,0.0044 0.01905,0.01291 0.0053,0.0053 0.0082,0.01143 0.0082,0.0181 0,0.0085 -0.0034,0.01651 -0.01032,0.02379 -0.06572,0.07138 -0.129831,0.149535 -0.191717,0.235128 0.02566,0.06254 0.06133,0.131738 0.106468,0.207221 0.004,0.0063 0.0058,0.01122 0.0058,0.01497 0,0.0073 -0.0045,0.01484 -0.01402,0.02273 l -0.01561,0.01085 c 0.0027,0.0038 0.0027,0.0087 0.0027,0.01497 0,0.0095 -0.0034,0.01664 -0.01032,0.0217 -0.0082,0.0057 -0.01429,0.0088 -0.01799,0.0088 -0.0082,0 -0.01535,-0.0042 -0.0217,-0.01241 -0.03786,-0.04863 -0.07684,-0.105866 -0.117316,-0.17156 -0.05432,0.07075 -0.116417,0.165061 -0.186532,0.283187 -0.01005,0.01707 -0.02717,0.02585 -0.05117,0.02585 -0.01138,0 -0.01799,-0.0069 -0.01905,-0.02016 -0.01614,-0.0088 -0.02434,-0.0226 -0.02434,-0.04186 0,-0.02527 0.0026,-0.04292 0.0053,-0.05271 0.0027,-0.0044 0.0069,-0.01357 0.01508,-0.02687 0.0644,-0.100437 0.132611,-0.192457 0.204631,-0.27647 -0.03852,-0.0916 -0.06379,-0.162287 -0.07646,-0.211873 -0.0026,-0.01106 -0.0042,-0.01805 -0.0042,-0.02119 0,-0.0047 0.0027,-0.01119 0.0077,-0.01913 0.0061,-0.0082 0.01138,-0.01188 0.0164,-0.01188 0.0048,0 0.01085,0.0042 0.01799,0.01344 0.0027,-0.0053 0.0061,-0.0096 0.01032,-0.01344 0.0061,-0.0053 0.01376,-0.0083 0.02222,-0.0083 0.01005,0 0.0164,0.005 0.01958,0.01447 0.01693,0.05307 0.03937,0.103405 0.06718,0.151411 0.04487,-0.05813 0.09991,-0.119555 0.164333,-0.183968 0.0077,-0.0076 0.01323,-0.01138 0.01746,-0.01138 z"
       id="path5306" />
  </g>
</svg>
