<?xml version="1.0" encoding="UTF-8" standalone="no"?>
<svg
   xmlns:dc="http://purl.org/dc/elements/1.1/"
   xmlns:cc="http://creativecommons.org/ns#"
   xmlns:rdf="http://www.w3.org/1999/02/22-rdf-syntax-ns#"
   xmlns:svg="http://www.w3.org/2000/svg"
   xmlns="http://www.w3.org/2000/svg"
   id="svg5340"
   version="1.1"
   viewBox="0 0 4.2333398 4.2333331"
   height="4.2333331mm"
   width="4.2333398mm">
  <defs
     id="defs5334" />
  <metadata
     id="metadata5337">
    <rdf:RDF>
      <cc:Work
         rdf:about="">
        <dc:format>image/svg+xml</dc:format>
        <dc:type
           rdf:resource="http://purl.org/dc/dcmitype/StillImage" />
        <dc:title></dc:title>
      </cc:Work>
    </rdf:RDF>
  </metadata>
  <g
     transform="translate(126.09286,-83.972619)"
     id="layer1">
    <path
       id="circle5284"
       d="m -123.97619,83.972619 a 2.1166666,2.1166666 0 0 0 -2.11667,2.116667 2.1166666,2.1166666 0 0 0 2.11667,2.116666 2.1166666,2.1166666 0 0 0 2.11667,-2.116666 2.1166666,2.1166666 0 0 0 -0.73383,-1.600936 l -0.38033,0.707451 0.33797,0.217556 c 0.0863,0.0555 0.0792,0.155858 0.0558,0.255799 l -0.062,0.265618 -1.37666,-0.885219 0.19172,-0.181901 c 0.0743,-0.0708 0.17,-0.11136 0.25633,-0.05581 l 0.28421,0.182936 0.38913,-0.723469 a 2.1166666,2.1166666 0 0 0 -1.079,-0.298691 z m -0.17984,1.208196 1.46915,0.944645 -0.26405,1.130162 c -0.0233,0.09998 -0.1764,0.120848 -0.2558,0.05581 l -1.53842,-1.260903 c -0.0794,-0.065 -0.13017,-0.185534 -0.0558,-0.256316 z m -1.12707,0.769977 a 0.39687601,0.39687601 0 0 1 0.39637,0.396875 0.39687601,0.39687601 0 0 1 -0.39584,0.396875 h -0.003 a 0.39687601,0.39687601 0 0 1 -0.39478,-0.397907 0.39687601,0.39687601 0 0 1 0.39738,-0.395843 z m 0.81391,1.106392 a 0.1322919,0.1322919 0 0 1 0.13229,0.132292 0.1322919,0.1322919 0 0 1 -0.13179,0.132292 v 0 a 0.1322919,0.1322919 0 0 1 -0.13176,-0.132808 0.1322919,0.1322919 0 0 1 0.13229,-0.131776 z m 0.73483,0.111623 a 0.26458378,0.26458378 0 0 1 0.26408,0.264583 0.26458378,0.26458378 0 0 1 -0.26355,0.264584 h -0.003 a 0.26458378,0.26458378 0 0 1 -0.26355,-0.2651 0.26458378,0.26458378 0 0 1 0.26509,-0.264067 z"
       style="opacity:1;fill:#606f64;fill-opacity:1;stroke:none;stroke-width:2;stroke-miterlimit:4;stroke-dasharray:none;stroke-dashoffset:0;stroke-opacity:1" />
  </g>
</svg>
