<?xml version="1.0" encoding="UTF-8" standalone="no"?>
<svg
   xmlns:dc="http://purl.org/dc/elements/1.1/"
   xmlns:cc="http://creativecommons.org/ns#"
   xmlns:rdf="http://www.w3.org/1999/02/22-rdf-syntax-ns#"
   xmlns:svg="http://www.w3.org/2000/svg"
   xmlns="http://www.w3.org/2000/svg"
   id="svg5382"
   version="1.1"
   viewBox="0 0 4.2333398 4.2333331"
   height="4.2333331mm"
   width="4.2333398mm">
  <defs
     id="defs5376" />
  <metadata
     id="metadata5379">
    <rdf:RDF>
      <cc:Work
         rdf:about="">
        <dc:format>image/svg+xml</dc:format>
        <dc:type
           rdf:resource="http://purl.org/dc/dcmitype/StillImage" />
        <dc:title></dc:title>
      </cc:Work>
    </rdf:RDF>
  </metadata>
  <g
     transform="translate(135.16429,8.2535714)"
     id="layer1">
    <path
       id="circle5300"
       d="m -133.04762,-8.2535714 a 2.1166666,2.1166666 0 0 0 -2.11667,2.1166667 2.1166666,2.1166666 0 0 0 2.11667,2.1166666 2.1166666,2.1166666 0 0 0 2.11667,-2.1166666 2.1166666,2.1166666 0 0 0 -0.73382,-1.6009382 l -0.38034,0.7069349 0.33848,0.2175589 c 0.0863,0.055499 0.0787,0.1563741 0.0553,0.2563125 l -0.062,0.2656178 -1.37613,-0.8852164 0.19119,-0.182417 c 0.0743,-0.070803 0.16997,-0.110834 0.25633,-0.055295 l 0.28422,0.182417 0.38912,-0.7234687 a 2.1166666,2.1166666 0 0 0 -1.079,-0.2981722 z m -0.17933,1.2076774 1.46917,0.9451605 -0.26458,1.130165 c -0.0233,0.099999 -0.1764,0.120859 -0.2558,0.055811 l -1.53842,-1.261422 c -0.0794,-0.065 -0.13017,-0.1850178 -0.0558,-0.2557992 z m -1.09501,0.2682002 c 0.0108,0.00159 0.0217,0.00516 0.0315,0.011377 l 0.14314,0.086815 c 0.0393,0.024183 0.0518,0.075639 0.0279,0.1152393 l -0.25993,0.429948 -0.0868,0.1436608 c -0.0241,0.039301 -0.0749,0.051906 -0.11472,0.027906 l -0.14367,-0.086818 -0.14314,-0.086815 c -0.0393,-0.024183 -0.0519,-0.075123 -0.0279,-0.1147206 l 0.0863,-0.1436609 c 0.0241,-0.039301 0.0754,-0.052006 0.11523,-0.027906 l 0.0718,0.043408 0.21654,-0.3586348 c 0.0119,-0.020399 0.0309,-0.031724 0.0517,-0.037724 v -5.292e-4 c 0.0103,-0.00238 0.0212,-0.0031 0.032,-0.00159 z m 0.46715,0.8676481 c 0.0143,-0.00159 0.0288,0.00185 0.0408,0.01188 l 0.0868,0.070279 c 0.0238,0.0195 0.0277,0.054549 0.008,0.07855 l -0.21085,0.2604479 -0.0703,0.086818 c -0.0196,0.023786 -0.0545,0.027768 -0.0786,0.00826 l -0.0868,-0.070804 -0.0868,-0.069763 c -0.0238,-0.0195 -0.0272,-0.054549 -0.008,-0.07855 l 0.0703,-0.086815 c 0.0196,-0.023786 0.0545,-0.027768 0.0785,-0.00826 l 0.0429,0.035139 0.17568,-0.2170404 c 0.01,-0.012409 0.0236,-0.01815 0.0377,-0.020161 z m 0.69091,0.9141566 c 0.0198,0.00185 0.0391,0.011271 0.0527,0.028421 l 0.0987,0.1214385 c 0.027,0.033584 0.0222,0.082275 -0.0114,0.1095534 l -0.3643,0.2961063 -0.12095,0.098703 c -0.0336,0.02698 -0.0827,0.022331 -0.11006,-0.011377 l -0.0987,-0.1214386 -0.0987,-0.1214411 c -0.027,-0.033581 -0.0217,-0.082791 0.0119,-0.1100693 l 0.12091,-0.098703 c 0.0336,-0.02698 0.0828,-0.021775 0.11007,0.01188 l 0.0496,0.060463 0.30281,-0.2464964 c 0.0169,-0.014261 0.0373,-0.018256 0.0574,-0.017066 z"
       style="opacity:1;fill:#606f64;fill-opacity:1;stroke:none;stroke-width:2;stroke-miterlimit:4;stroke-dasharray:none;stroke-dashoffset:0;stroke-opacity:1" />
  </g>
</svg>
