<?xml version="1.0" encoding="UTF-8" standalone="no"?>
<!-- Created with Inkscape (http://www.inkscape.org/) -->

<svg
   xmlns:dc="http://purl.org/dc/elements/1.1/"
   xmlns:cc="http://creativecommons.org/ns#"
   xmlns:rdf="http://www.w3.org/1999/02/22-rdf-syntax-ns#"
   xmlns:svg="http://www.w3.org/2000/svg"
   xmlns="http://www.w3.org/2000/svg"
   xmlns:sodipodi="http://sodipodi.sourceforge.net/DTD/sodipodi-0.dtd"
   xmlns:inkscape="http://www.inkscape.org/namespaces/inkscape"
   width="0.16666654in"
   height="0.16666666in"
   viewBox="0 0 4.2333301 4.2333331"
   version="1.1"
   id="svg8"
   inkscape:version="0.92.2 2405546, 2018-03-11"
   sodipodi:docname="editicon.svg">
  <defs
     id="defs2" />
  <sodipodi:namedview
     id="base"
     pagecolor="#ffffff"
     bordercolor="#666666"
     borderopacity="1.0"
     inkscape:pageopacity="0.0"
     inkscape:pageshadow="2"
     inkscape:zoom="3.4608959"
     inkscape:cx="-14.29904"
     inkscape:cy="46.610197"
     inkscape:document-units="px"
     inkscape:current-layer="layer1"
     showgrid="false"
     units="in"
     showborder="true"
     inkscape:window-width="1360"
     inkscape:window-height="713"
     inkscape:window-x="1920"
     inkscape:window-y="0"
     inkscape:window-maximized="1"
     inkscape:snap-global="true"
     fit-margin-top="0"
     fit-margin-left="0"
     fit-margin-right="0"
     fit-margin-bottom="0">
    <inkscape:grid
       type="xygrid"
       id="grid4518"
       spacingx="0.26458333"
       dotted="false"
       empspacing="5"
       enabled="true"
       visible="true"
       originx="316.5357"
       originy="-378.08959" />
  </sodipodi:namedview>
  <metadata
     id="metadata5">
    <rdf:RDF>
      <cc:Work
         rdf:about="">
        <dc:format>image/svg+xml</dc:format>
        <dc:type
           rdf:resource="http://purl.org/dc/dcmitype/StillImage" />
        <dc:title></dc:title>
      </cc:Work>
    </rdf:RDF>
  </metadata>
  <g
     inkscape:label="Layer 1"
     inkscape:groupmode="layer"
     id="layer1"
     transform="translate(316.5357,85.322917)">
    <path
       style="opacity:1;fill:#606f64;fill-opacity:1;stroke:none;stroke-width:2;stroke-miterlimit:4;stroke-dasharray:none;stroke-dashoffset:0;stroke-opacity:1"
       d="m -314.41904,-85.322917 a 2.1166666,2.1166666 0 0 0 -2.11666,2.116667 2.1166666,2.1166666 0 0 0 2.11666,2.116666 2.1166666,2.1166666 0 0 0 2.11667,-2.116666 2.1166666,2.1166666 0 0 0 -2.11667,-2.116667 z m 0.39534,0.904338 c 0.0612,3.78e-4 0.12753,0.02362 0.18447,0.06976 l 0.41135,0.332795 c 0.1138,0.09227 0.14616,0.240136 0.0723,0.331248 l -0.19998,0.246496 -0.82216,-0.666109 0.19997,-0.246497 c 0.0369,-0.04556 0.0928,-0.06807 0.15401,-0.0677 z m -0.52038,0.519864 0.82217,0.66611 -0.83304,1.027845 -0.82217,-0.66611 z m -0.94001,1.264007 c 0.011,-1.72e-4 0.0258,0.02067 0.0258,0.02067 l 0.0258,0.02119 0.0258,0.02067 0.0253,0.02067 0.0258,0.02119 0.0258,0.02067 0.0258,0.02067 0.0253,0.02119 0.0258,0.02067 0.0258,0.02067 0.0253,0.02119 0.0258,0.02067 0.0259,0.02067 0.0258,0.02119 0.0253,0.02067 0.0258,0.02067 0.0258,0.02119 0.0258,0.02067 0.0258,0.02067 0.0253,0.02119 0.0258,0.02067 0.0258,0.02067 0.0253,0.02119 0.0258,0.02067 0.0258,0.02067 0.0258,0.02067 0.0253,0.02119 c 0,0 0.0238,0.01012 0.0258,0.02067 l 10e-4,-5.29e-4 c 0.003,0.01659 -0.0102,0.03491 -0.0248,0.04341 -0.0108,0.0066 -0.0377,0.001 -0.0377,0.001 l -0.0382,10e-4 -0.0383,0.001 -0.0377,0.001 -0.0383,10e-4 -0.0377,0.001 -0.0383,0.001 -0.0382,10e-4 -0.0377,0.0015 -0.0382,10e-4 -0.0382,5.29e-4 -0.0377,0.0015 -0.0383,5.29e-4 -0.0377,0.0015 c -0.0441,0.0011 -0.0949,-0.04043 -0.10284,-0.0838 l -0.007,-0.03721 -0.007,-0.03772 -0.007,-0.03721 -0.007,-0.03721 -0.007,-0.03772 -0.007,-0.03721 -0.007,-0.03772 -0.007,-0.03772 -0.007,-0.03721 -0.007,-0.03721 -0.007,-0.03772 -0.007,-0.03721 -0.007,-0.03772 c 0,0 -0.0112,-0.02542 -0.007,-0.03721 0.005,-0.016 0.0205,-0.03318 0.0372,-0.03359 z"
       id="circle162"
       inkscape:connector-curvature="0" />
  </g>
</svg>
