<?xml version="1.0" encoding="UTF-8" standalone="no"?>
<svg
   xmlns:dc="http://purl.org/dc/elements/1.1/"
   xmlns:cc="http://creativecommons.org/ns#"
   xmlns:rdf="http://www.w3.org/1999/02/22-rdf-syntax-ns#"
   xmlns:svg="http://www.w3.org/2000/svg"
   xmlns="http://www.w3.org/2000/svg"
   xmlns:sodipodi="http://sodipodi.sourceforge.net/DTD/sodipodi-0.dtd"
   xmlns:inkscape="http://www.inkscape.org/namespaces/inkscape"
   id="svg8"
   version="1.1"
   viewBox="0 0 4.2333399 4.2333335"
   height="15.999999"
   width="16.000025"
   sodipodi:docname="open_close_icon.svg"
   inkscape:version="0.92.2 2405546, 2018-03-11">
  <sodipodi:namedview
     pagecolor="#ffffff"
     bordercolor="#666666"
     borderopacity="1"
     objecttolerance="10"
     gridtolerance="10"
     guidetolerance="10"
     inkscape:pageopacity="0"
     inkscape:pageshadow="2"
     inkscape:window-width="696"
     inkscape:window-height="480"
     id="namedview7"
     showgrid="false"
     fit-margin-top="0"
     fit-margin-left="0"
     fit-margin-right="0"
     fit-margin-bottom="0"
     inkscape:zoom="1.966667"
     inkscape:cx="-6.2372613"
     inkscape:cy="-30.135586"
     inkscape:window-x="0"
     inkscape:window-y="0"
     inkscape:window-maximized="0"
     inkscape:current-layer="svg8" />
  <defs
     id="defs2" />
  <metadata
     id="metadata5">
    <rdf:RDF>
      <cc:Work
         rdf:about="">
        <dc:format>image/svg+xml</dc:format>
        <dc:type
           rdf:resource="http://purl.org/dc/dcmitype/StillImage" />
        <dc:title></dc:title>
      </cc:Work>
    </rdf:RDF>
  </metadata>
  <path
     style="opacity:1;fill:#606f64;fill-opacity:1;stroke:none;stroke-width:2.00000024;stroke-miterlimit:4;stroke-dasharray:none;stroke-dashoffset:0;stroke-opacity:1"
     d="M 2.11667,0 A 2.1166667,2.1166667 0 0 0 0,2.1166671 2.1166667,2.1166667 0 0 0 2.11667,4.2333333 2.1166667,2.1166667 0 0 0 4.23334,2.1166671 2.1166667,2.1166667 0 0 0 2.11667,0 Z M 1.85209,0.79375 h 0.52916 c 0.14658,0 0.26459,0.118002 0.26459,0.2645831 v 0.529167 H 3.175 c 0.14657,0 0.26459,0.118015 0.26459,0.264583 v 0.529167 c 0,0.1465691 -0.11802,0.264583 -0.26459,0.264583 H 2.64584 v 0.5291671 c 0,0.1465791 -0.11801,0.264583 -0.26459,0.264583 H 1.85209 c -0.14655,0 -0.26459,-0.1180039 -0.26459,-0.264583 V 2.6458331 H 1.05834 c -0.14658,0 -0.26459,-0.1180139 -0.26459,-0.264583 v -0.529167 c 0,-0.146568 0.11801,-0.264583 0.26459,-0.264583 H 1.5875 V 1.0583331 C 1.5875,0.911752 1.70554,0.79375 1.85209,0.79375 Z"
     id="circle166"
     inkscape:connector-curvature="0" />
</svg>
