<?xml version="1.0" encoding="UTF-8" standalone="no"?>
<svg
   xmlns:dc="http://purl.org/dc/elements/1.1/"
   xmlns:cc="http://creativecommons.org/ns#"
   xmlns:rdf="http://www.w3.org/1999/02/22-rdf-syntax-ns#"
   xmlns:svg="http://www.w3.org/2000/svg"
   xmlns="http://www.w3.org/2000/svg"
   xmlns:sodipodi="http://sodipodi.sourceforge.net/DTD/sodipodi-0.dtd"
   xmlns:inkscape="http://www.inkscape.org/namespaces/inkscape"
   id="svg8"
   version="1.1"
   viewBox="0 0 4.2333312 4.2333331"
   height="0.16666666in"
   width="0.16666658in"
   sodipodi:docname="trashicon.svg"
   inkscape:version="0.92.2 2405546, 2018-03-11">
  <sodipodi:namedview
     pagecolor="#ffffff"
     bordercolor="#666666"
     borderopacity="1"
     objecttolerance="10"
     gridtolerance="10"
     guidetolerance="10"
     inkscape:pageopacity="0"
     inkscape:pageshadow="2"
     inkscape:window-width="1920"
     inkscape:window-height="1052"
     id="namedview7"
     showgrid="false"
     fit-margin-bottom="-2.7755576e-17"
     fit-margin-top="0"
     fit-margin-left="0"
     fit-margin-right="0"
     inkscape:zoom="8"
     inkscape:cx="-28.610174"
     inkscape:cy="28.338981"
     inkscape:window-x="0"
     inkscape:window-y="0"
     inkscape:window-maximized="1"
     inkscape:current-layer="svg8" />
  <defs
     id="defs2" />
  <metadata
     id="metadata5">
    <rdf:RDF>
      <cc:Work
         rdf:about="">
        <dc:format>image/svg+xml</dc:format>
        <dc:type
           rdf:resource="http://purl.org/dc/dcmitype/StillImage" />
        <dc:title></dc:title>
      </cc:Work>
    </rdf:RDF>
  </metadata>
  <path
     style="opacity:1;fill:#606f64;fill-opacity:1;stroke:none;stroke-width:2;stroke-miterlimit:4;stroke-dasharray:none;stroke-dashoffset:0;stroke-opacity:1"
     d="M 2.11666,0 A 2.1166666,2.1166666 0 0 0 0,2.116667 2.1166666,2.1166666 0 0 0 2.11666,4.233333 2.1166666,2.1166666 0 0 0 4.233331,2.116667 2.1166666,2.1166666 0 0 0 2.11666,0 Z M 1.85467,0.79375 h 0.52399 c 0.1199,0 0.21624,0.08111 0.24754,0.190685 l 0.3452,0.09405 c 0.13999,0.03802 0.22196,0.181364 0.18397,0.321429 L 2.66134,3.219956 C 2.63354,3.32226 2.54839,3.387154 2.45049,3.402376 2.34611,3.426916 2.232,3.439516 2.11666,3.439586 2.00184,3.439417 1.88828,3.426816 1.78437,3.402376 1.68587,3.387626 1.60041,3.322786 1.57252,3.219956 L 1.07796,1.399914 C 1.03986,1.259849 1.12186,1.116505 1.26193,1.078485 l 0.3452,-0.09405 C 1.63843,0.874863 1.73477,0.79375 1.85467,0.79375 Z m -0.0703,2.608629 c 0.015,0.0022 0.0298,0.007 0.045,0.0067 v -5.3e-4 c -0.0153,2.91e-4 -0.0301,-0.0041 -0.045,-0.0062 z m 0.66612,0 c -0.0153,0.0024 -0.0303,0.0065 -0.046,0.0062 v 5.29e-4 c 0.0158,1.99e-4 0.0305,-0.0043 0.046,-0.0067 z M 2.11666,1.064535 a 0.78592143,0.3929607 0 0 0 -0.78599,0.39274 0.78592143,0.3929607 0 0 0 0.78599,0.393258 0.78592143,0.3929607 0 0 0 0.786,-0.393258 0.78592143,0.3929607 0 0 0 -0.786,-0.39274 z m -0.39946,0.98702 -0.12298,0.0217 c -0.0371,0.0066 -0.058,0.06692 -0.046,0.134874 l 0.093,0.528652 c 0.012,0.06792 0.0515,0.11667 0.0889,0.110071 l 0.12297,-0.02119 c 0.0371,-0.0066 0.058,-0.0664 0.046,-0.134358 L 1.80609,2.162653 C 1.79409,2.094743 1.75459,2.044948 1.71719,2.051549 Z m 0.79893,0 c -0.0376,-0.0067 -0.0769,0.04314 -0.0889,0.111104 l -0.093,0.528651 c -0.012,0.06797 0.008,0.127758 0.046,0.134358 l 0.12297,0.0217 C 2.5408,2.854068 2.5801,2.804738 2.5921,2.73678 L 2.6851,2.208128 C 2.697,2.140158 2.6761,2.079853 2.6391,2.073254 Z m -0.46199,0.06511 c -0.0381,-8e-6 -0.0687,0.05557 -0.0687,0.124539 v 0.536919 c 0,0.06897 0.0306,0.123762 0.0687,0.124023 h 0.12505 c 0.0381,6e-6 0.0687,-0.05505 0.0687,-0.124023 V 2.241204 c 0,-0.06897 -0.0306,-0.124277 -0.0687,-0.124539 z"
     id="circle170"
     inkscape:connector-curvature="0" />
</svg>
