<?xml version="1.0" encoding="UTF-8" standalone="no"?>
<!-- Created with Inkscape (http://www.inkscape.org/) -->

<svg
   xmlns:dc="http://purl.org/dc/elements/1.1/"
   xmlns:cc="http://creativecommons.org/ns#"
   xmlns:rdf="http://www.w3.org/1999/02/22-rdf-syntax-ns#"
   xmlns:svg="http://www.w3.org/2000/svg"
   xmlns="http://www.w3.org/2000/svg"
   xmlns:sodipodi="http://sodipodi.sourceforge.net/DTD/sodipodi-0.dtd"
   xmlns:inkscape="http://www.inkscape.org/namespaces/inkscape"
   width="15.999989"
   height="16.000008"
   viewBox="0 0 4.2333303 4.2333349"
   version="1.1"
   id="svg8"
   inkscape:version="0.92.2 2405546, 2018-03-11"
   sodipodi:docname="undoicon.svg">
  <defs
     id="defs2" />
  <sodipodi:namedview
     id="base"
     pagecolor="#ffffff"
     bordercolor="#666666"
     borderopacity="1.0"
     inkscape:pageopacity="0.0"
     inkscape:pageshadow="2"
     inkscape:zoom="3.4608959"
     inkscape:cx="79.696018"
     inkscape:cy="12.870119"
     inkscape:document-units="px"
     inkscape:current-layer="layer1"
     showgrid="false"
     units="px"
     showborder="true"
     inkscape:window-width="1360"
     inkscape:window-height="713"
     inkscape:window-x="1920"
     inkscape:window-y="0"
     inkscape:window-maximized="1"
     inkscape:snap-global="true"
     fit-margin-top="0"
     fit-margin-left="0"
     fit-margin-right="0"
     fit-margin-bottom="0">
    <inkscape:grid
       type="xygrid"
       id="grid4518"
       spacingx="0.26458333"
       dotted="false"
       empspacing="5"
       enabled="true"
       visible="true"
       originx="385.36613"
       originy="-393.13256" />
  </sodipodi:namedview>
  <metadata
     id="metadata5">
    <rdf:RDF>
      <cc:Work
         rdf:about="">
        <dc:format>image/svg+xml</dc:format>
        <dc:type
           rdf:resource="http://purl.org/dc/dcmitype/StillImage" />
        <dc:title></dc:title>
      </cc:Work>
    </rdf:RDF>
  </metadata>
  <g
     inkscape:label="Layer 1"
     inkscape:groupmode="layer"
     id="layer1"
     transform="translate(385.36611,100.36593)">
    <path
       style="opacity:1;fill:#606f64;fill-opacity:1;stroke:none;stroke-width:2;stroke-miterlimit:4;stroke-dasharray:none;stroke-dashoffset:0;stroke-opacity:1"
       d="m -383.24945,-100.36593 a 2.1166665,2.1166665 0 0 0 -2.11666,2.116675 2.1166665,2.1166665 0 0 0 2.11666,2.11666 2.1166665,2.1166665 0 0 0 2.11667,-2.11666 2.1166665,2.1166665 0 0 0 -2.11667,-2.116675 z m -0.45786,0.794275 h 5.3e-4 c 0.011,0.002 0.0215,0.008 0.0274,0.0181 0.009,0.0141 -5.1e-4,0.0553 -5.1e-4,0.0553 v 0.0558 0.0548 0.0553 l -5.3e-4,0.0553 v 0.0553 l -5e-4,0.0537 c 0.018,-9.1e-4 0.0358,-0.004 0.0537,-0.004 0.68088,0 1.31413,0.45853 1.31413,1.12706 -0.0202,0.56872 -0.78769,1.17501 -1.50172,1.11414 -0.19677,-0.40222 0.83703,-0.67484 0.75033,-1.11414 -0.0436,-0.22122 -0.20659,-0.37569 -0.56274,-0.37569 -0.0196,0 -0.0373,0.003 -0.0558,0.004 v 0.0222 l -5e-4,0.0553 v 0.0553 0.0553 0.0548 l -5.3e-4,0.0558 v 0.0548 c 0,0 0.006,0.0416 -5e-4,0.0553 -0.0146,0.004 -0.0286,0.0125 -0.0434,0.0109 -0.0145,-0.007 -0.031,-0.0475 -0.031,-0.0475 l -0.031,-0.0481 -0.0305,-0.0475 -0.031,-0.0475 -0.0305,-0.0481 -0.031,-0.0475 -0.0305,-0.0481 -0.031,-0.0475 -0.0305,-0.0475 -0.031,-0.0481 -0.0305,-0.0481 -0.031,-0.047 -0.031,-0.0481 -0.0305,-0.0475 c -0.0351,-0.0554 -0.0358,-0.16394 -10e-4,-0.22014 l 0.03,-0.0491 0.03,-0.0481 0.0305,-0.0491 0.03,-0.0481 0.03,-0.0491 0.03,-0.0486 0.0299,-0.0486 0.03,-0.0486 0.03,-0.0491 0.0305,-0.0486 0.0295,-0.0486 0.0299,-0.0486 0.03,-0.0486 c 0,0 0.0162,-0.0413 0.0305,-0.0486 0.009,-0.005 0.0211,-0.007 0.032,-0.006 z"
       id="circle164"
       inkscape:connector-curvature="0" />
  </g>
</svg>
