<?xml version="1.0" encoding="UTF-8" standalone="no"?>
<svg
   xmlns:dc="http://purl.org/dc/elements/1.1/"
   xmlns:cc="http://creativecommons.org/ns#"
   xmlns:rdf="http://www.w3.org/1999/02/22-rdf-syntax-ns#"
   xmlns:svg="http://www.w3.org/2000/svg"
   xmlns="http://www.w3.org/2000/svg"
   xmlns:sodipodi="http://sodipodi.sourceforge.net/DTD/sodipodi-0.dtd"
   xmlns:inkscape="http://www.inkscape.org/namespaces/inkscape"
   id="svg90"
   version="1.1"
   viewBox="0 0 4.2333298 4.2333331"
   height="4.2333331mm"
   width="4.2333298mm"
   sodipodi:docname="viewdeleted.svg"
   inkscape:version="0.92.2 2405546, 2018-03-11">
  <sodipodi:namedview
     pagecolor="#ffffff"
     bordercolor="#666666"
     borderopacity="1"
     objecttolerance="10"
     gridtolerance="10"
     guidetolerance="10"
     inkscape:pageopacity="0"
     inkscape:pageshadow="2"
     inkscape:window-width="1920"
     inkscape:window-height="1052"
     id="namedview152"
     showgrid="false"
     inkscape:zoom="2.8284271"
     inkscape:cx="8.1355865"
     inkscape:cy="7.9999996"
     inkscape:window-x="0"
     inkscape:window-y="0"
     inkscape:window-maximized="1"
     inkscape:current-layer="svg90" />
  <defs
     id="defs84" />
  <metadata
     id="metadata87">
    <rdf:RDF>
      <cc:Work
         rdf:about="">
        <dc:format>image/svg+xml</dc:format>
        <dc:type
           rdf:resource="http://purl.org/dc/dcmitype/StillImage" />
        <dc:title />
      </cc:Work>
    </rdf:RDF>
  </metadata>
  <path
     inkscape:connector-curvature="0"
     style="opacity:1;fill:#606f64;fill-opacity:1;stroke:none;stroke-width:2;stroke-miterlimit:4;stroke-dasharray:none;stroke-dashoffset:0;stroke-opacity:1"
     d="M 2.1166649,-1.1503827e-7 A 2.1166666,2.1166666 0 0 0 -1.7589683e-6,2.1166666 2.1166666,2.1166666 0 0 0 2.1166649,4.2333332 2.1166666,2.1166666 0 0 0 4.2333315,2.1166666 2.1166666,2.1166666 0 0 0 2.1166649,-1.1503827e-7 Z M 1.2211032,0.52865061 h 1.7895623 c 0.213651,0 0.3901546,0.17701154 0.3901546,0.39067317 V 2.3424937 L 3.1512122,2.2153694 V 0.91932378 c 0,-0.0794888 -0.061066,-0.1405599 -0.1405467,-0.1405599 H 1.2211032 c -0.079481,0 -0.1384829,0.0610605 -0.1384829,0.1405599 V 3.3140093 c 0,0.079502 0.058976,0.1405599 0.1384829,0.1405599 H 2.9863767 L 3.312952,3.556373 C 3.2409853,3.6455852 3.1325855,3.7041666 3.0106655,3.7041666 H 1.2211032 c -0.213651,0 -0.38861996,-0.176493 -0.38861996,-0.3901573 V 0.91932378 c 0,-0.21366163 0.17496896,-0.39067317 0.38861996,-0.39067317 z M 1.8401753,1.0872734 v 0 c 0.00344,0 0.00767,0.00238 0.012435,0.00722 0.00529,0.00495 0.010583,0.011589 0.01614,0.019632 0.009,-0.015769 0.015875,-0.02376 0.021167,-0.02376 0.00476,0 0.011113,0.00405 0.01905,0.012409 0.00476,0.00527 0.00661,0.011086 0.00661,0.017568 -2.64e-5,0.00833 -0.00317,0.01614 -0.00979,0.023257 -0.06432,0.069866 -0.1270265,0.1467008 -0.1875632,0.2304758 0.025135,0.061206 0.05969,0.1286854 0.103849,0.202573 0.00397,0.00619 0.00635,0.011298 0.00635,0.014975 0,0.00712 -0.00476,0.014499 -0.014023,0.022225 l -0.015081,0.010345 c 0.00265,0.00373 0.00265,0.00881 0.00265,0.014975 0,0.00926 -0.00344,0.016245 -0.010319,0.021193 -0.00794,0.00553 -0.013758,0.00826 -0.017463,0.00826 -0.00794,0 -0.015081,-0.00384 -0.021167,-0.01188 -0.037067,-0.047606 -0.07514,-0.1036477 -0.1147219,-0.1679468 -0.053208,0.069247 -0.1143529,0.1613668 -0.1829329,0.2769844 -0.00979,0.016695 -0.026591,0.025321 -0.050139,0.025321 -0.011113,0 -0.017198,-0.00667 -0.018521,-0.019632 -0.015875,-0.00865 -0.023813,-0.022489 -0.023813,-0.041341 0,-0.024738 0.00265,-0.041582 0.00529,-0.05116 0,-0.00434 0.00582,-0.013388 0.014552,-0.026353 0.06305,-0.098306 0.1300162,-0.1885554 0.2005012,-0.2707852 -0.03773,-0.089651 -0.0626,-0.1586892 -0.07493,-0.2072217 -0.00265,-0.010821 -0.00423,-0.017568 -0.00423,-0.020664 0,-0.00434 0.00291,-0.010557 0.0082,-0.0186 0.00609,-0.00804 0.011113,-0.01188 0.016139,-0.01188 0.00476,0 0.010583,0.00447 0.017463,0.013441 0.00265,-0.00527 0.00609,-0.00974 0.010319,-0.013441 0.00529,-0.00492 0.012435,-0.00775 0.021167,-0.00775 0.00979,0 0.016404,0.00468 0.019579,0.013943 0.016669,0.051935 0.038444,0.1013222 0.065643,0.1483122 0.043921,-0.05688 0.097155,-0.1167686 0.1601787,-0.1798346 0.00741,-0.00741 0.013229,-0.010848 0.017462,-0.010848 z m 0,0.853178 v 0 c 0.00344,0 0.00767,0.00238 0.012435,0.00722 0.00529,0.00495 0.010583,0.011589 0.01614,0.019632 0.009,-0.015769 0.015875,-0.023759 0.021167,-0.023759 0.00476,0 0.011113,0.00405 0.01905,0.012409 0.00476,0.00527 0.00661,0.011086 0.00661,0.017568 -2.64e-5,0.00833 -0.00317,0.01614 -0.00979,0.023257 -0.06432,0.069866 -0.1270265,0.1467009 -0.1875632,0.2304759 0.025135,0.061206 0.05969,0.1286854 0.103849,0.202573 0.00397,0.00619 0.00635,0.011298 0.00635,0.014975 0,0.00712 -0.00476,0.014499 -0.014023,0.022225 l -0.015081,0.010345 c 0.00265,0.00373 0.00265,0.00884 0.00265,0.014975 0,0.00929 -0.00344,0.016245 -0.010319,0.021193 -0.00794,0.00553 -0.013758,0.00826 -0.017463,0.00826 -0.00794,0 -0.015081,-0.00384 -0.021167,-0.01188 -0.037067,-0.047607 -0.07514,-0.1036487 -0.1147219,-0.1679478 -0.053208,0.069247 -0.1143529,0.1613667 -0.1829329,0.2769844 -0.00979,0.016695 -0.026591,0.025321 -0.050139,0.025321 -0.011113,0 -0.017198,-0.00667 -0.018521,-0.019632 -0.015875,-0.00865 -0.023813,-0.02249 -0.023813,-0.041339 0,-0.024739 0.00265,-0.041582 0.00529,-0.05116 0,-0.00434 0.00582,-0.013388 0.014552,-0.026352 0.06305,-0.098306 0.1300162,-0.1885553 0.2005012,-0.2707852 -0.03773,-0.089651 -0.0626,-0.1586891 -0.07493,-0.2072217 -0.00265,-0.010821 -0.00423,-0.017568 -0.00423,-0.020664 0,-0.00434 0.00291,-0.010583 0.0082,-0.0186 0.00609,-0.00804 0.011113,-0.01188 0.016139,-0.01188 0.00476,0 0.010583,0.00447 0.017463,0.013441 0.00265,-0.00527 0.00609,-0.00974 0.010319,-0.013441 0.00529,-0.00495 0.012435,-0.00775 0.021167,-0.00775 0.00979,0 0.016404,0.00468 0.019579,0.013943 0.016669,0.051935 0.038444,0.1013222 0.065643,0.1483122 0.043921,-0.05688 0.097155,-0.1167685 0.1601787,-0.1798346 0.00741,-0.00741 0.013229,-0.010848 0.017462,-0.010848 z m 0.8630179,0.1798347 c 0.040349,0.00185 0.080751,0.010398 0.137451,0.026871 0.254688,0.074038 0.4110038,0.274021 0.4335728,0.5550032 l 0.012435,0.1534796 0.2108464,0.104386 c 0.1160727,0.057581 0.2178315,0.1218195 0.2258219,0.142629 0.023019,0.06001 -0.042518,0.1870392 -0.1043781,0.2025703 -0.0372,0.00929 -0.1258094,-0.020929 -0.2609586,-0.088884 L 3.1533288,3.1129895 3.0711757,3.1760344 c -0.045217,0.034449 -0.1235604,0.079634 -0.1741487,0.1007692 -0.1116278,0.046641 -0.354383,0.048546 -0.4573323,0.00362 v 0 C 2.1625965,3.1593736 2.0090324,2.8172462 2.104838,2.5347373 2.1733386,2.3328894 2.3499215,2.1804126 2.5673297,2.13528 2.6233157,2.123638 2.6633997,2.118558 2.7037753,2.120305 Z M 2.6896995,2.3616125 C 2.4705451,2.3614088 2.2797276,2.5661487 2.3150495,2.7631389 2.3638386,3.035075 2.6123353,3.1624031 2.8540322,3.0390914 3.1746542,2.875526 3.050009,2.3619486 2.6896995,2.3616125 Z"
     id="circle65" />
</svg>
