<?xml version="1.0" encoding="UTF-8" standalone="no"?>
<!-- Created with Inkscape (http://www.inkscape.org/) -->

<svg
   xmlns:dc="http://purl.org/dc/elements/1.1/"
   xmlns:cc="http://creativecommons.org/ns#"
   xmlns:rdf="http://www.w3.org/1999/02/22-rdf-syntax-ns#"
   xmlns:svg="http://www.w3.org/2000/svg"
   xmlns="http://www.w3.org/2000/svg"
   xmlns:sodipodi="http://sodipodi.sourceforge.net/DTD/sodipodi-0.dtd"
   xmlns:inkscape="http://www.inkscape.org/namespaces/inkscape"
   width="4.2333331mm"
   height="4.2333331mm"
   viewBox="0 0 4.2333331 4.2333331"
   version="1.1"
   id="svg175"
   inkscape:version="0.92.2 2405546, 2018-03-11"
   sodipodi:docname="viewcompleted.svg">
  <defs
     id="defs169" />
  <sodipodi:namedview
     id="base"
     pagecolor="#ffffff"
     bordercolor="#666666"
     borderopacity="1.0"
     inkscape:pageopacity="0.0"
     inkscape:pageshadow="2"
     inkscape:zoom="2"
     inkscape:cx="10.894923"
     inkscape:cy="7.3896002"
     inkscape:document-units="mm"
     inkscape:current-layer="layer1"
     showgrid="false"
     fit-margin-top="0"
     fit-margin-left="0"
     fit-margin-right="0"
     fit-margin-bottom="0"
     inkscape:window-width="1920"
     inkscape:window-height="1052"
     inkscape:window-x="0"
     inkscape:window-y="0"
     inkscape:window-maximized="1" />
  <metadata
     id="metadata172">
    <rdf:RDF>
      <cc:Work
         rdf:about="">
        <dc:format>image/svg+xml</dc:format>
        <dc:type
           rdf:resource="http://purl.org/dc/dcmitype/StillImage" />
        <dc:title></dc:title>
      </cc:Work>
    </rdf:RDF>
  </metadata>
  <g
     inkscape:label="Layer 1"
     inkscape:groupmode="layer"
     id="layer1"
     transform="translate(70.152381,-87.752381)">
    <path
       inkscape:connector-curvature="0"
       style="opacity:1;fill:#606f64;fill-opacity:1;stroke:none;stroke-width:2;stroke-miterlimit:4;stroke-dasharray:none;stroke-dashoffset:0;stroke-opacity:1"
       d="m -68.035714,87.752381 a 2.1166666,2.1166666 0 0 0 -2.116667,2.116667 2.1166666,2.1166666 0 0 0 2.116667,2.116666 2.1166666,2.1166666 0 0 0 2.116666,-2.116666 2.1166666,2.1166666 0 0 0 -2.116666,-2.116667 z m -0.895059,0.528651 h 1.789562 c 0.213651,0 0.390155,0.177011 0.390155,0.390673 v 1.42317 l -0.249582,-0.127125 v -1.296045 c 0,-0.07949 -0.06107,-0.14056 -0.140573,-0.14056 h -1.789562 c -0.07948,0 -0.138483,0.06106 -0.138483,0.14056 v 2.394685 c 0,0.0795 0.059,0.14056 0.138483,0.14056 h 1.765273 l 0.326602,0.101804 c -0.07197,0.08921 -0.180366,0.147794 -0.302313,0.147794 h -1.789562 c -0.213651,0 -0.388594,-0.176493 -0.388594,-0.390158 v -2.394685 c 0,-0.213662 0.174943,-0.390673 0.388594,-0.390673 z m 0.668708,0.6165 c 0.01614,-0.0016 0.03239,0.003 0.04599,0.01394 l 0.09819,0.07906 c 0.0268,0.02196 0.0308,0.06171 0.0087,0.08888 l -0.237701,0.294041 c 0,0 0,5.29e-4 0,5.29e-4 l -0.07959,0.09767 c -0.02196,0.02711 -0.06117,0.03128 -0.08837,0.0093 l -0.09819,-0.07907 -0.09819,-0.07958 c -0.0268,-0.02199 -0.03077,-0.06173 -0.0087,-0.08888 l 0.07906,-0.09818 c 0.02196,-0.02711 0.0617,-0.03128 0.0889,-0.0093 l 0.04908,0.03979 0.197935,-0.244946 c 0.01111,-0.01352 0.02678,-0.02156 0.04289,-0.02326 z m 0,0.5271 c 0.01614,-0.0016 0.03239,0.0024 0.04599,0.01344 l 0.09819,0.07958 c 0.0268,0.02196 0.0308,0.06171 0.0087,0.08888 l -0.237701,0.294037 -0.07959,0.09819 c -0.02196,0.02711 -0.06117,0.03128 -0.08837,0.0093 l -0.09819,-0.07958 -0.09819,-0.07906 c -0.0268,-0.02199 -0.03077,-0.06173 -0.0087,-0.08888 l 0.07906,-0.09819 c 0.02196,-0.02711 0.0617,-0.03128 0.0889,-0.0093 l 0.04908,0.03979 0.197935,-0.244946 c 0.01111,-0.01352 0.02678,-0.02156 0.04289,-0.02326 z m 0.813911,0.448035 c 0.04035,0.0018 0.08125,0.01037 0.137954,0.02687 0.254688,0.07404 0.410501,0.273505 0.43307,0.554487 l 0.01243,0.15348 0.210847,0.104902 c 0.116072,0.05758 0.217831,0.121819 0.225821,0.142629 0.02302,0.06001 -0.04202,0.186523 -0.103875,0.202054 -0.0372,0.0093 -0.126312,-0.02093 -0.261461,-0.08888 l -0.204655,-0.102835 -0.08215,0.06253 c -0.04522,0.03445 -0.12356,0.08015 -0.174148,0.101285 -0.111628,0.04664 -0.354383,0.04855 -0.457333,0.0036 -0.277098,-0.121054 -0.430662,-0.463182 -0.334883,-0.745691 0.0685,-0.201848 0.244581,-0.354324 0.461989,-0.399457 0.05599,-0.01164 0.09607,-0.01672 0.136446,-0.01497 z m -0.813911,0.07906 c 0.01614,-0.0016 0.03239,0.0024 0.04599,0.01344 l 0.09819,0.07958 c 0.0268,0.02196 0.0308,0.06119 0.0087,0.08837 l -0.237701,0.294555 -0.07959,0.09819 c -0.02196,0.02711 -0.06117,0.03128 -0.08837,0.0093 l -0.09819,-0.07958 -0.09819,-0.07907 c -0.0268,-0.02199 -0.03077,-0.06172 -0.0087,-0.08888 l 0.07906,-0.09818 c 0.02196,-0.02711 0.0617,-0.03128 0.0889,-0.0093 l 0.04908,0.03979 0.197935,-0.245465 c 0.01111,-0.01352 0.02678,-0.02103 0.04289,-0.02273 z m 0.800973,0.162266 c -0.219155,-2.06e-4 -0.410475,0.204534 -0.375153,0.401524 0.04879,0.271936 0.297286,0.398748 0.538983,0.275436 0.320622,-0.163565 0.196479,-0.676626 -0.16383,-0.67696 z"
       id="circle32" />
  </g>
</svg>
